<svg width="29" height="29" viewBox="0 0 29 29" fill="none" xmlns="http://www.w3.org/2000/svg">
<g id="ant-design:appstore-outlined">
<path id="Vector" d="M13.1406 4.07812H4.53125C4.28203 4.07812 4.07812 4.28203 4.07812 4.53125V13.1406C4.07812 13.3898 4.28203 13.5938 4.53125 13.5938H13.1406C13.3898 13.5938 13.5938 13.3898 13.5938 13.1406V4.53125C13.5938 4.28203 13.3898 4.07812 13.1406 4.07812ZM11.668 11.668H6.00391V6.00391H11.668V11.668ZM24.4688 4.07812H15.8594C15.6102 4.07812 15.4062 4.28203 15.4062 4.53125V13.1406C15.4062 13.3898 15.6102 13.5938 15.8594 13.5938H24.4688C24.718 13.5938 24.9219 13.3898 24.9219 13.1406V4.53125C24.9219 4.28203 24.718 4.07812 24.4688 4.07812ZM22.9961 11.668H17.332V6.00391H22.9961V11.668ZM13.1406 15.4062H4.53125C4.28203 15.4062 4.07812 15.6102 4.07812 15.8594V24.4688C4.07812 24.718 4.28203 24.9219 4.53125 24.9219H13.1406C13.3898 24.9219 13.5938 24.718 13.5938 24.4688V15.8594C13.5938 15.6102 13.3898 15.4062 13.1406 15.4062ZM11.668 22.9961H6.00391V17.332H11.668V22.9961ZM24.4688 15.4062H15.8594C15.6102 15.4062 15.4062 15.6102 15.4062 15.8594V24.4688C15.4062 24.718 15.6102 24.9219 15.8594 24.9219H24.4688C24.718 24.9219 24.9219 24.718 24.9219 24.4688V15.8594C24.9219 15.6102 24.718 15.4062 24.4688 15.4062ZM22.9961 22.9961H17.332V17.332H22.9961V22.9961Z" fill="#0D0D0D"/>
</g>
</svg>
