<svg width="20" height="20" viewBox="0 0 20 20" fill="none" xmlns="http://www.w3.org/2000/svg">
<g id="&#240;&#159;&#166;&#134; icon &#34;information circle outline&#34;">
<g id="Group">
<path id="Vector" d="M10 1C5.02995 1 1 5.02995 1 10C1 14.9701 5.02995 19 10 19C14.9701 19 19 14.9701 19 10C19 5.02995 14.9701 1 10 1Z" stroke="#545351" stroke-miterlimit="10"/>
<path id="Vector_2" d="M8.63086 8.63044H10.1961V14.3044" stroke="#545351" stroke-linecap="round" stroke-linejoin="round"/>
<path id="Vector_3" d="M8.04297 14.5H12.3473" stroke="#545351" stroke-miterlimit="10" stroke-linecap="round"/>
</g>
<path id="Vector_4" d="M10.0003 4.22826C9.74873 4.22826 9.50285 4.30285 9.29371 4.44259C9.08458 4.58233 8.92158 4.78095 8.82532 5.01333C8.72907 5.24571 8.70388 5.50141 8.75295 5.74811C8.80202 5.9948 8.92314 6.2214 9.101 6.39926C9.27886 6.57711 9.50546 6.69824 9.75215 6.74731C9.99884 6.79638 10.2545 6.77119 10.4869 6.67494C10.7193 6.57868 10.9179 6.41568 11.0577 6.20654C11.1974 5.99741 11.272 5.75153 11.272 5.5C11.272 5.16272 11.138 4.83924 10.8995 4.60075C10.661 4.36225 10.3375 4.22826 10.0003 4.22826Z" fill="#292826"/>
</g>
</svg>
