<svg width="25" height="23" viewBox="0 0 25 23" fill="none" xmlns="http://www.w3.org/2000/svg">
<g id="&#240;&#159;&#166;&#134; icon &#34;language&#34;">
<path id="Vector" d="M16.0395 9.0398L11.6206 19.7432C11.6204 19.7436 11.6203 19.7441 11.6201 19.7445C11.54 19.9362 11.4986 20.1417 11.4981 20.3495C11.4975 20.5577 11.5381 20.7639 11.6176 20.9564L12.0784 20.7662L11.6176 20.9564C11.697 21.1488 11.8137 21.3237 11.9609 21.4709C12.1081 21.6181 12.2829 21.7348 12.4754 21.8143C12.6678 21.8937 12.8741 21.9343 13.0822 21.9338C13.2904 21.9333 13.4965 21.8917 13.6885 21.8113C13.8806 21.731 14.0549 21.6134 14.2014 21.4655L13.8461 21.1137L14.2014 21.4655C14.3475 21.3179 14.4632 21.1429 14.5417 20.9506C14.5418 20.9502 14.542 20.9497 14.5422 20.9493L15.3137 19.0809H19.6867L20.4592 20.9515C20.5785 21.2408 20.7811 21.4882 21.0413 21.6623C21.3014 21.8363 21.6073 21.9292 21.9203 21.9292H21.9206C22.1802 21.929 22.4359 21.8649 22.6649 21.7424C22.8939 21.6199 23.0892 21.4429 23.2335 21.227C23.3778 21.0111 23.4667 20.763 23.4923 20.5046C23.4946 20.4818 23.4963 20.459 23.4976 20.4363H23.666L23.3808 19.7455L18.961 9.0398L18.961 9.03979C18.8416 8.75059 18.6391 8.50334 18.379 8.32936C18.119 8.15538 17.8131 8.06251 17.5002 8.06251C17.1874 8.06251 16.8815 8.15538 16.6215 8.32936C16.3614 8.50334 16.1589 8.75059 16.0395 9.03979L16.0395 9.0398ZM18.3821 15.9201H16.6189L17.5005 13.7846L18.3821 15.9201Z" stroke="#545351"/>
<path id="Vector_2" d="M12.0818 16.3843V17.0264L12.9868 15.7763C13.2323 15.4372 13.3332 15.0144 13.2673 14.601C13.2374 14.4127 13.1739 14.2334 13.0818 14.0707V13.9392L13.0385 13.9989C12.9338 13.8349 12.7987 13.6901 12.6385 13.5732C12.6342 13.5699 12.6252 13.5631 12.6112 13.5523C12.5912 13.5368 12.5608 13.5129 12.5207 13.4804C12.4405 13.4154 12.3217 13.3162 12.1704 13.1813C11.9233 12.9611 11.5895 12.646 11.195 12.23C12.8943 9.82029 13.9195 7.19467 14.4122 5.72334H15.6344C16.0535 5.72334 16.4555 5.55683 16.7519 5.26045C17.0482 4.96407 17.2147 4.5621 17.2147 4.14295C17.2147 3.7238 17.0482 3.32182 16.7519 3.02545C16.4555 2.72907 16.0535 2.56256 15.6344 2.56256H10.4378V2.08039C10.4378 1.66124 10.2713 1.25927 9.97488 0.962885L9.62132 1.31644L9.97488 0.962884C9.67849 0.666505 9.27652 0.5 8.85737 0.5C8.43823 0.5 8.03625 0.666505 7.73987 0.962885C7.44349 1.25927 7.27698 1.66124 7.27698 2.08039V2.56256H2.08039C1.66124 2.56256 1.25927 2.72906 0.962885 3.02545C0.666505 3.32183 0.5 3.7238 0.5 4.14295C0.5 4.56209 0.666505 4.96407 0.962885 5.26045L1.31644 4.9069L0.962885 5.26045C1.25927 5.55683 1.66124 5.72334 2.08039 5.72334H11.0497C10.6204 6.83902 9.97848 8.27817 9.10315 9.66913C7.9612 8.06907 7.50152 7.04714 7.46983 6.97668C7.46909 6.97504 7.46858 6.97391 7.4683 6.97331L7.46836 6.97328L7.46437 6.96407C7.29918 6.58233 6.99016 6.2811 6.60432 6.12571C6.21849 5.97033 5.78695 5.97332 5.4033 6.13404C5.01965 6.29476 4.71484 6.60024 4.55496 6.98424C4.39508 7.36824 4.39304 7.79979 4.54927 8.18528L4.54923 8.1853L4.55172 8.19121C4.59401 8.29183 5.27204 9.87603 7.09217 12.2673C5.29804 14.2258 3.59339 15.4324 2.89371 15.8182C2.5263 16.019 2.25355 16.3574 2.1354 16.7591C2.01712 17.1612 2.06342 17.5939 2.26413 17.9619C2.46484 18.3299 2.80351 18.603 3.20564 18.7213C3.60777 18.8396 4.04041 18.7933 4.4084 18.5926L4.40868 18.5924C4.54268 18.5192 6.66926 17.3375 9.16693 14.6806C10.0826 15.6134 10.7027 16.0741 10.7797 16.1292C10.9474 16.2505 11.1372 16.3378 11.3385 16.386L11.455 15.8998L11.3385 16.386C11.5405 16.4344 11.7501 16.4425 11.9553 16.4098C11.9979 16.403 12.04 16.3945 12.0818 16.3843Z" stroke="#545351"/>
</g>
</svg>
