<svg width="24" height="27" viewBox="0 0 24 27" fill="none" xmlns="http://www.w3.org/2000/svg">
<g id="Frame 3564">
<g id="Group">
<path id="Vector" d="M18.7976 18.7806C17.6313 17.3532 16.8079 16.6265 16.8079 12.6912C16.8079 9.08744 14.9676 7.80353 13.453 7.17997C13.2518 7.09731 13.0624 6.90747 13.0011 6.70083C12.7354 5.7966 11.9906 5 11.0005 5C10.0105 5 9.2652 5.79705 9.00224 6.70174C8.94093 6.91065 8.75154 7.09731 8.55035 7.17997C7.03391 7.80444 5.19547 9.08381 5.19547 12.6912C5.19319 16.6265 4.3698 17.3532 3.20352 18.7806C2.72029 19.3719 3.14357 20.2598 3.98876 20.2598H18.0169C18.8575 20.2598 19.2781 19.3692 18.7976 18.7806Z" stroke="#545351" stroke-linecap="round" stroke-linejoin="round"/>
<path id="Vector_2" d="M13.906 20.2598V20.9865C13.906 21.7573 13.5998 22.4966 13.0547 23.0417C12.5096 23.5868 11.7703 23.8931 10.9994 23.8931C10.2285 23.8931 9.4892 23.5868 8.9441 23.0417C8.39901 22.4966 8.09277 21.7573 8.09277 20.9865V20.2598" stroke="#545351" stroke-linecap="round" stroke-linejoin="round"/>
</g>
</g>
</svg>
